<?xml version="1.0" standalone="no"?>
<!DOCTYPE svg PUBLIC "-//W3C//DTD SVG 20010904//EN"
 "http://www.w3.org/TR/2001/REC-SVG-20010904/DTD/svg10.dtd">
<svg version="1.0" xmlns="http://www.w3.org/2000/svg"
 width="512.000000pt" height="512.000000pt" viewBox="0 0 512.000000 512.000000"
 preserveAspectRatio="xMidYMid meet">
<metadata>
Created by potrace 1.11, written by Peter Selinger 2001-2013
</metadata>
<g transform="translate(0.000000,512.000000) scale(0.100000,-0.100000)"
fill="#000000" stroke="none">
<path d="M2625 4756 c-49 -18 -112 -40 -140 -48 -27 -9 -86 -28 -130 -43 -241
-82 -305 -104 -357 -119 -32 -9 -58 -22 -58 -28 0 -8 24 -132 71 -368 6 -30
24 -107 40 -170 17 -63 37 -142 46 -175 58 -232 225 -657 343 -875 10 -19 34
-66 53 -105 58 -117 45 -112 177 -67 124 43 169 58 473 159 122 40 201 72 205
81 7 19 -58 353 -104 530 -19 72 -34 136 -34 140 0 7 121 47 395 130 72 22
189 58 260 80 72 21 193 58 270 82 77 23 196 60 265 81 69 21 152 46 185 55
33 10 66 22 73 27 34 27 -14 257 -85 403 -58 120 -62 121 -196 71 -174 -66
-292 -108 -345 -122 -29 -8 -65 -21 -80 -29 -15 -7 -74 -30 -132 -49 -104 -36
-235 -82 -485 -172 -144 -51 -278 -95 -281 -92 -1 1 -16 36 -32 77 -17 41 -37
89 -46 105 -9 17 -16 34 -16 40 0 5 -48 105 -106 222 -76 154 -110 213 -122
212 -9 0 -57 -15 -107 -33z"/>
<path d="M1066 4452 c-3 -5 7 -77 24 -158 52 -266 109 -567 124 -659 l15 -90
90 -86 c50 -47 119 -112 153 -145 35 -32 155 -146 267 -252 l204 -192 84 0 84
0 -28 48 c-15 26 -52 85 -81 131 -30 46 -72 113 -93 148 -22 36 -44 70 -50 76
-9 11 -112 173 -175 277 -54 88 -588 888 -603 903 -5 5 -11 5 -15 -1z"/>
<path d="M566 4104 c-3 -9 -6 -30 -6 -47 0 -18 -8 -70 -17 -116 l-16 -84 70
-66 c167 -157 448 -402 460 -402 4 0 13 30 20 67 10 53 10 71 0 83 -6 9 -48
58 -92 110 -44 52 -89 106 -100 119 -11 13 -31 37 -45 52 -14 16 -76 89 -138
164 -63 75 -118 136 -122 136 -4 0 -11 -7 -14 -16z"/>
<path d="M467 3588 c5 -7 75 -93 154 -191 79 -97 160 -197 179 -221 19 -24 84
-103 144 -175 60 -73 105 -136 100 -141 -12 -10 -96 -45 -304 -126 -96 -37
-184 -74 -195 -82 -17 -12 36 -13 405 -7 234 4 479 10 545 14 l120 6 0 60 0
60 -100 73 c-55 40 -116 83 -135 97 -19 13 -91 65 -160 114 -69 49 -181 130
-249 178 -68 48 -139 99 -157 113 -18 14 -88 64 -156 112 -68 48 -134 96 -148
107 -28 23 -58 29 -43 9z"/>
<path d="M1716 2508 c-11 -15 -16 -46 -16 -95 l0 -73 -585 0 c-488 0 -585 -2
-585 -14 0 -7 16 -45 36 -84 35 -72 139 -188 230 -259 89 -69 262 -151 424
-202 65 -20 265 -51 373 -58 l107 -6 0 -82 c0 -102 12 -119 92 -140 112 -29
189 -100 209 -196 7 -32 9 -90 6 -142 -5 -77 -10 -96 -39 -144 -18 -30 -51
-71 -73 -90 -44 -39 -185 -110 -237 -119 -132 -24 -255 -80 -308 -141 l-31
-35 3 -140 c3 -125 5 -141 22 -154 16 -11 71 -14 275 -14 l256 0 60 40 c136
91 282 145 464 171 238 34 546 -38 726 -170 l49 -36 259 -3 c222 -3 262 -1
283 13 23 15 24 19 24 159 0 132 -2 146 -22 176 -32 47 -127 96 -233 120 -119
28 -251 87 -315 141 -101 86 -144 232 -120 411 21 149 84 267 201 373 67 61
183 126 344 195 159 67 632 150 856 150 72 0 91 3 113 21 l26 20 0 193 c0 157
-3 196 -16 214 l-15 22 -1414 0 -1414 0 -15 -22z"/>
</g>
</svg>
